<svg width="40" height="40" viewBox="0 0 40 40" fill="none" xmlns="http://www.w3.org/2000/svg">
<path d="M16.5196 22.32C19.2148 22.32 21.3996 19.9024 21.3996 16.92C21.3996 13.9377 19.2148 11.52 16.5196 11.52C13.8245 11.52 11.6396 13.9377 11.6396 16.92C11.6396 19.9024 13.8245 22.32 16.5196 22.32Z" fill="white"/>
<path d="M21.0396 22.9599C19.7996 24.0799 18.2396 24.7599 16.5196 24.7599C14.7996 24.7599 13.1996 24.0799 11.9996 22.9199C9.79961 23.9199 7.59961 25.1999 7.59961 27.1999V28.0399C7.59961 29.0399 8.39961 29.8399 9.39961 29.8399H23.6796C24.6796 29.8399 25.4796 29.0399 25.4796 28.0399V27.1999C25.4396 25.1999 23.2796 23.9599 21.0396 22.9599Z" fill="white"/>
<path d="M27.1995 18.9599C27.1195 18.9199 27.0795 18.8799 26.9995 18.8399C26.8395 18.7599 26.6395 18.7599 26.4795 18.8799C25.6395 19.3999 24.6395 19.7199 23.5995 19.7199C23.4795 19.7199 23.3195 19.7199 23.1995 19.7199C22.9995 20.2399 22.7995 20.7599 22.5195 21.1999C22.6795 21.2799 22.8795 21.3199 23.0795 21.4399C25.3595 22.4399 26.9595 23.6799 28.0795 25.3599H29.9995C30.8795 25.3599 31.5995 24.6399 31.5995 23.7599V22.9999C31.5995 21.0399 29.3195 19.8399 27.1995 18.9599Z" fill="white"/>
<path d="M26.7604 13.6801C26.7604 11.7201 25.3204 10.1201 23.6004 10.1201C22.7204 10.1201 21.9604 10.5201 21.3604 11.1201C22.7604 12.5601 23.6404 14.6001 23.6404 16.8801C23.6404 17.0001 23.6404 17.0801 23.6404 17.2001C25.3604 17.2001 26.7604 15.6401 26.7604 13.6801Z" fill="white"/>
</svg>
