<svg width="28" height="28" viewBox="0 0 28 28" fill="none" xmlns="http://www.w3.org/2000/svg">
<path d="M7.0002 5.6C6.25759 5.6 5.5454 5.305 5.0203 4.7799C4.49519 4.2548 4.2002 3.54261 4.2002 2.8C4.2002 2.05739 4.49519 1.3452 5.0203 0.820101C5.5454 0.294999 6.25759 0 7.0002 0C7.7428 0 8.45499 0.294999 8.98009 0.820101C9.5052 1.3452 9.8002 2.05739 9.8002 2.8C9.8002 3.54261 9.5052 4.2548 8.98009 4.7799C8.45499 5.305 7.7428 5.6 7.0002 5.6ZM14.0002 5.6C13.2576 5.6 12.5454 5.305 12.0203 4.7799C11.4952 4.2548 11.2002 3.54261 11.2002 2.8C11.2002 2.05739 11.4952 1.3452 12.0203 0.820101C12.5454 0.294999 13.2576 0 14.0002 0C14.7428 0 15.455 0.294999 15.9801 0.820101C16.5052 1.3452 16.8002 2.05739 16.8002 2.8C16.8002 3.54261 16.5052 4.2548 15.9801 4.7799C15.455 5.305 14.7428 5.6 14.0002 5.6ZM21.0002 5.6C20.2576 5.6 19.5454 5.305 19.0203 4.7799C18.4952 4.2548 18.2002 3.54261 18.2002 2.8C18.2002 2.05739 18.4952 1.3452 19.0203 0.820101C19.5454 0.294999 20.2576 0 21.0002 0C21.7428 0 22.455 0.294999 22.9801 0.820101C23.5052 1.3452 23.8002 2.05739 23.8002 2.8C23.8002 3.54261 23.5052 4.2548 22.9801 4.7799C22.455 5.305 21.7428 5.6 21.0002 5.6ZM7.0002 12.6C6.25759 12.6 5.5454 12.305 5.0203 11.7799C4.49519 11.2548 4.2002 10.5426 4.2002 9.8C4.2002 9.05739 4.49519 8.3452 5.0203 7.8201C5.5454 7.295 6.25759 7 7.0002 7C7.7428 7 8.45499 7.295 8.98009 7.8201C9.5052 8.3452 9.8002 9.05739 9.8002 9.8C9.8002 10.5426 9.5052 11.2548 8.98009 11.7799C8.45499 12.305 7.7428 12.6 7.0002 12.6ZM14.0002 12.6C13.2576 12.6 12.5454 12.305 12.0203 11.7799C11.4952 11.2548 11.2002 10.5426 11.2002 9.8C11.2002 9.05739 11.4952 8.3452 12.0203 7.8201C12.5454 7.295 13.2576 7 14.0002 7C14.7428 7 15.455 7.295 15.9801 7.8201C16.5052 8.3452 16.8002 9.05739 16.8002 9.8C16.8002 10.5426 16.5052 11.2548 15.9801 11.7799C15.455 12.305 14.7428 12.6 14.0002 12.6ZM21.0002 12.6C20.2576 12.6 19.5454 12.305 19.0203 11.7799C18.4952 11.2548 18.2002 10.5426 18.2002 9.8C18.2002 9.05739 18.4952 8.3452 19.0203 7.8201C19.5454 7.295 20.2576 7 21.0002 7C21.7428 7 22.455 7.295 22.9801 7.8201C23.5052 8.3452 23.8002 9.05739 23.8002 9.8C23.8002 10.5426 23.5052 11.2548 22.9801 11.7799C22.455 12.305 21.7428 12.6 21.0002 12.6ZM7.0002 19.6C6.25759 19.6 5.5454 19.305 5.0203 18.7799C4.49519 18.2548 4.2002 17.5426 4.2002 16.8C4.2002 16.0574 4.49519 15.3452 5.0203 14.8201C5.5454 14.295 6.25759 14 7.0002 14C7.7428 14 8.45499 14.295 8.98009 14.8201C9.5052 15.3452 9.8002 16.0574 9.8002 16.8C9.8002 17.5426 9.5052 18.2548 8.98009 18.7799C8.45499 19.305 7.7428 19.6 7.0002 19.6ZM14.0002 19.6C13.2576 19.6 12.5454 19.305 12.0203 18.7799C11.4952 18.2548 11.2002 17.5426 11.2002 16.8C11.2002 16.0574 11.4952 15.3452 12.0203 14.8201C12.5454 14.295 13.2576 14 14.0002 14C14.7428 14 15.455 14.295 15.9801 14.8201C16.5052 15.3452 16.8002 16.0574 16.8002 16.8C16.8002 17.5426 16.5052 18.2548 15.9801 18.7799C15.455 19.305 14.7428 19.6 14.0002 19.6ZM14.0002 28C13.2576 28 12.5454 27.705 12.0203 27.1799C11.4952 26.6548 11.2002 25.9426 11.2002 25.2C11.2002 24.4574 11.4952 23.7452 12.0203 23.2201C12.5454 22.695 13.2576 22.4 14.0002 22.4C14.7428 22.4 15.455 22.695 15.9801 23.2201C16.5052 23.7452 16.8002 24.4574 16.8002 25.2C16.8002 25.9426 16.5052 26.6548 15.9801 27.1799C15.455 27.705 14.7428 28 14.0002 28ZM21.0002 19.6C20.2576 19.6 19.5454 19.305 19.0203 18.7799C18.4952 18.2548 18.2002 17.5426 18.2002 16.8C18.2002 16.0574 18.4952 15.3452 19.0203 14.8201C19.5454 14.295 20.2576 14 21.0002 14C21.7428 14 22.455 14.295 22.9801 14.8201C23.5052 15.3452 23.8002 16.0574 23.8002 16.8C23.8002 17.5426 23.5052 18.2548 22.9801 18.7799C22.455 19.305 21.7428 19.6 21.0002 19.6Z" fill="#2D5497"/>
</svg>
