<svg width="30" height="30" viewBox="0 0 30 30" fill="none" xmlns="http://www.w3.org/2000/svg">
<path d="M15 27.5C21.9036 27.5 27.5 21.9036 27.5 15C27.5 8.09644 21.9036 2.5 15 2.5C8.09644 2.5 2.5 8.09644 2.5 15C2.5 21.9036 8.09644 27.5 15 27.5Z" fill="url(#paint0_linear_903_896)"/>
<path d="M15.0002 18.7502C14.8357 18.7512 14.6726 18.7197 14.5203 18.6574C14.3681 18.5952 14.2295 18.5036 14.1127 18.3877L10.3627 14.6377C10.1274 14.4024 9.99512 14.0831 9.99512 13.7502C9.99512 13.4174 10.1274 13.0981 10.3627 12.8627C10.5981 12.6274 10.9174 12.4951 11.2502 12.4951C11.5831 12.4951 11.9024 12.6274 12.1377 12.8627L15.0002 15.7377L17.8627 12.8627C18.0981 12.6274 18.4174 12.4951 18.7502 12.4951C19.0831 12.4951 19.4024 12.6274 19.6377 12.8627C19.8731 13.0981 20.0053 13.4174 20.0053 13.7502C20.0053 14.0831 19.8731 14.4024 19.6377 14.6377L15.8877 18.3877C15.7709 18.5036 15.6324 18.5952 15.4801 18.6574C15.3278 18.7197 15.1647 18.7512 15.0002 18.7502Z" fill="white"/>
<defs>
<linearGradient id="paint0_linear_903_896" x1="15" y1="2.5" x2="15" y2="27.5" gradientUnits="userSpaceOnUse">
<stop stop-color="#2F4396"/>
<stop offset="1" stop-color="#428BCA"/>
</linearGradient>
</defs>
</svg>
