<svg width="35" height="35" viewBox="0 0 35 35" fill="none" xmlns="http://www.w3.org/2000/svg">
<path d="M10.0514 25.9435C10.0744 25.905 10.0979 25.8665 10.1219 25.8283C11.8758 23.0401 12.8911 19.7429 12.8911 16.1926C12.8911 13.3321 15.21 11.0131 18.0707 11.0131C20.9312 11.0131 23.2501 13.3321 23.2501 16.1926C23.2501 17.5096 23.1604 18.8064 22.9869 20.0773M20.2451 28.9389C21.0372 27.3579 21.6866 25.6929 22.1765 23.9619M27.1475 25.4275C27.9827 22.4929 28.4298 19.395 28.4298 16.1925C28.4298 10.4714 23.792 5.8335 18.0708 5.8335C16.184 5.8335 14.415 6.33795 12.8914 7.21935M6.41699 21.8435C7.24657 20.1358 7.71188 18.2185 7.71188 16.1925C7.71188 14.3057 8.21633 12.5367 9.09771 11.013M18.0707 16.1928C18.0707 20.7471 16.7645 24.9964 14.5062 28.5863" stroke="#2D5497" stroke-width="2.5" stroke-linecap="round" stroke-linejoin="round"/>
</svg>
