<svg width="40" height="40" viewBox="0 0 40 40" fill="none" xmlns="http://www.w3.org/2000/svg">
<path fill-rule="evenodd" clip-rule="evenodd" d="M23.1887 5.26296C21.2942 3.57901 18.4395 3.57901 16.545 5.26296L3.75962 16.6278C3.07163 17.2393 3.00967 18.2928 3.6212 18.9808C4.23273 19.6687 5.28618 19.7307 5.97415 19.1192L6.53355 18.622V27.9832C6.53347 29.4607 6.5334 30.7337 6.67045 31.7532C6.81733 32.8457 7.14858 33.893 7.99802 34.7423C8.84745 35.5918 9.8947 35.923 10.9872 36.07C12.0067 36.207 13.2797 36.2068 14.7572 36.2068H24.9765C26.454 36.2068 27.727 36.207 28.7465 36.07C29.839 35.923 30.8864 35.5918 31.7357 34.7423C32.5852 33.893 32.9164 32.8457 33.0634 31.7532C33.2004 30.7337 33.2004 29.4607 33.2002 27.9833V18.622L33.7595 19.1192C34.4475 19.7307 35.501 19.6687 36.1125 18.9808C36.724 18.2928 36.6622 17.2393 35.9742 16.6278L23.1887 5.26296ZM19.8669 26.2068C18.9464 26.2068 18.2002 26.953 18.2002 27.8735V31.2068C18.2002 32.1273 17.454 32.8735 16.5335 32.8735C15.6131 32.8735 14.8669 32.1273 14.8669 31.2068V27.8735C14.8669 25.112 17.1054 22.8735 19.8669 22.8735C22.6284 22.8735 24.8669 25.112 24.8669 27.8735V31.2068C24.8669 32.1273 24.1207 32.8735 23.2002 32.8735C22.2797 32.8735 21.5335 32.1273 21.5335 31.2068V27.8735C21.5335 26.953 20.7874 26.2068 19.8669 26.2068Z" fill="#334391"/>
</svg>
