<svg width="26" height="26" viewBox="0 0 26 26" fill="none" xmlns="http://www.w3.org/2000/svg">
<g clip-path="url(#clip0_936_2450)">
<path d="M6.06712 2.1665C2.73533 2.1665 0 4.90252 0 8.23263V17.7671C0 21.0972 2.73533 23.8332 6.06712 23.8332H19.9328C23.2646 23.8332 26 21.0972 26 17.7671V8.23263C26 4.90252 23.2646 2.1665 19.9328 2.1665H6.06712ZM6.06712 5.6321H19.9328C21.4023 5.6321 22.5322 6.7614 22.5322 8.23263V17.7671C22.5322 19.2383 21.4023 20.3676 19.9328 20.3676H6.06712C4.59759 20.3676 3.46769 19.2383 3.46769 17.7671V8.23263C3.46769 6.7614 4.59759 5.6321 6.06712 5.6321Z" fill="#334391"/>
<path d="M3.38435 3.90232C3.1569 3.91308 2.93381 3.96849 2.72779 4.06542C2.52178 4.16234 2.33689 4.29887 2.18367 4.4672C1.87424 4.80717 1.71262 5.25605 1.73436 5.7151C1.7561 6.17416 1.95941 6.60578 2.29958 6.91502L11.8329 15.5817C12.1521 15.8719 12.5681 16.0327 12.9996 16.0327C13.4311 16.0327 13.8471 15.8719 14.1663 15.5817L23.6996 6.91502C24.0398 6.60578 24.2431 6.17416 24.2648 5.7151C24.2866 5.25605 24.1249 4.80717 23.8155 4.4672C23.5061 4.12725 23.0742 3.92408 22.6149 3.90237C22.1555 3.88066 21.7064 4.0422 21.3662 4.35144L12.9996 11.9574L4.63296 4.35144C4.29281 4.04219 3.84368 3.88063 3.38435 3.90232Z" fill="#334391"/>
<path d="M17.8426 13.8374L15.958 15.6286L21.3522 21.2972L23.2368 19.506L17.8426 13.8374Z" fill="#334391"/>
<path d="M8.15104 13.8447L2.75684 19.6041L4.65557 21.3803L10.0498 15.621L8.15104 13.8447Z" fill="#334391"/>
</g>
<defs>
<clipPath id="clip0_936_2450">
<rect width="26" height="26" fill="white"/>
</clipPath>
</defs>
</svg>
