<svg width="26" height="26" viewBox="0 0 26 26" fill="none" xmlns="http://www.w3.org/2000/svg">
<path d="M16.8525 15.76L16.3591 16.2795C16.3591 16.2795 15.1863 17.5142 11.985 14.1439C8.78379 10.7736 9.95659 9.53883 9.95659 9.53883L10.2673 9.2117C11.0328 8.40584 11.1049 7.11205 10.4371 6.16753L9.07103 4.23541C8.24447 3.06638 6.64729 2.91195 5.6999 3.90936L3.9995 5.69957C3.52975 6.19413 3.21495 6.83524 3.25313 7.54644C3.35079 9.36592 4.12827 13.2806 8.46664 17.8481C13.0673 22.6917 17.384 22.8842 19.1493 22.71C19.7077 22.6549 20.1932 22.3538 20.5845 21.9418L22.1235 20.3216C23.1623 19.228 22.8694 17.3531 21.5402 16.588L19.4705 15.3967C18.5978 14.8943 17.5346 15.0419 16.8525 15.76Z" fill="#334391"/>
<path d="M14.3648 2.03632C14.4365 1.59336 14.8552 1.29287 15.2982 1.36458C15.3256 1.36983 15.4139 1.38632 15.46 1.39661C15.5525 1.41721 15.6815 1.4489 15.8422 1.49573C16.1638 1.58937 16.6129 1.74365 17.152 1.99079C18.2313 2.48561 19.6676 3.3512 21.158 4.84165C22.6485 6.3321 23.5141 7.76839 24.0088 8.84769C24.256 9.38678 24.4103 9.83593 24.5039 10.1574C24.5507 10.3182 24.5824 10.4472 24.603 10.5396C24.6133 10.5858 24.6209 10.6229 24.6261 10.6504L24.6324 10.6842C24.704 11.1271 24.4063 11.5632 23.9633 11.6349C23.5216 11.7064 23.1055 11.4073 23.0321 10.9665C23.0298 10.9546 23.0235 10.9229 23.0169 10.8929C23.0035 10.8328 22.9804 10.7377 22.9438 10.6119C22.8705 10.3602 22.7432 9.98607 22.5317 9.52492C22.1094 8.60375 21.35 7.33172 20.0089 5.9907C18.668 4.64968 17.3959 3.89027 16.4748 3.46796C16.0136 3.25654 15.6395 3.12921 15.3878 3.05589C15.262 3.01924 15.1038 2.98294 15.0438 2.96958C14.6029 2.8961 14.2933 2.47802 14.3648 2.03632Z" fill="#334391"/>
<path fill-rule="evenodd" clip-rule="evenodd" d="M14.6096 5.77359C14.7329 5.34212 15.1826 5.09228 15.614 5.21555L15.3909 5.9968C15.614 5.21555 15.614 5.21555 15.614 5.21555L15.6157 5.21601L15.6173 5.21648L15.6209 5.21753L15.6293 5.22005L15.6508 5.22672C15.667 5.23194 15.6875 5.23875 15.7118 5.24738C15.7604 5.26465 15.8248 5.2892 15.9036 5.323C16.0615 5.39064 16.277 5.49509 16.542 5.65186C17.0722 5.96568 17.7961 6.48696 18.6465 7.33735C19.4969 8.18774 20.0181 8.9116 20.332 9.44186C20.4887 9.70675 20.5932 9.9224 20.6609 10.0802C20.6947 10.1591 20.7193 10.2234 20.7365 10.2721C20.7451 10.2964 20.7519 10.3168 20.7572 10.3331L20.7638 10.3545L20.7663 10.3629L20.7674 10.3666L20.7678 10.3682C20.7678 10.3682 20.7683 10.3698 19.987 10.593L20.7683 10.3698C20.8916 10.8012 20.6417 11.2509 20.2103 11.3742C19.7825 11.4964 19.3367 11.2519 19.209 10.8272L19.205 10.8155C19.1992 10.7992 19.1873 10.7671 19.1673 10.7203C19.1272 10.6268 19.0545 10.4738 18.9336 10.2695C18.692 9.86137 18.2558 9.24468 17.4974 8.48639C16.7392 7.72812 16.1225 7.29186 15.7144 7.05031C15.51 6.92938 15.3571 6.85669 15.2635 6.81661C15.2167 6.79656 15.1846 6.7846 15.1684 6.77882L15.1567 6.77483C14.732 6.64712 14.4874 6.20138 14.6096 5.77359Z" fill="#334391"/>
</svg>
