<svg width="30" height="30" viewBox="0 0 30 30" fill="none" xmlns="http://www.w3.org/2000/svg">
<path fill-rule="evenodd" clip-rule="evenodd" d="M4.375 11.9595V18.0405C4.375 20.9072 4.375 22.3405 5.27701 23.2311C6.09649 24.0401 7.36972 24.1141 9.77308 24.121C9.64607 23.278 9.61954 22.271 9.61286 21.0861C9.61002 20.5824 10.0214 20.1717 10.5316 20.1689C11.0419 20.1661 11.4578 20.5723 11.4606 21.076C11.4681 22.4059 11.5031 23.3486 11.6362 24.064C11.7645 24.7534 11.9704 25.1524 12.2703 25.4485C12.6113 25.7851 13.0899 26.0046 13.9939 26.1245C14.9244 26.2481 16.1576 26.25 17.9259 26.25H19.1577C20.9259 26.25 22.1591 26.2481 23.0896 26.1245C23.9936 26.0046 24.4722 25.7851 24.8131 25.4485C25.1541 25.1119 25.3764 24.6392 25.4979 23.7469C25.623 22.8282 25.625 21.6106 25.625 19.8649V10.1351C25.625 8.38936 25.623 7.17179 25.4979 6.25313C25.3764 5.36069 25.1541 4.8881 24.8131 4.5515C24.4722 4.2149 23.9936 3.99544 23.0896 3.87545C22.1591 3.75194 20.9259 3.75 19.1577 3.75H17.9259C16.1576 3.75 14.9244 3.75194 13.9939 3.87545C13.0899 3.99544 12.6113 4.2149 12.2703 4.5515C11.9704 4.84759 11.7645 5.2466 11.6362 5.93596C11.5031 6.6514 11.4681 7.59406 11.4606 8.924C11.4578 9.42776 11.0419 9.83388 10.5316 9.83106C10.0214 9.82826 9.61002 9.41761 9.61286 8.91384C9.61954 7.72903 9.64607 6.72197 9.77308 5.87906C7.36972 5.88584 6.09649 5.95986 5.27701 6.76894C4.375 7.65949 4.375 9.09281 4.375 11.9595ZM7.41731 15.645C7.0565 15.2887 7.0565 14.7113 7.41731 14.355L9.88105 11.9226C10.2418 11.5664 10.8268 11.5664 11.1876 11.9226C11.5485 12.2788 11.5485 12.8564 11.1876 13.2126L10.3011 14.0879H19.1574C19.6676 14.0879 20.0814 14.4963 20.0814 15C20.0814 15.5037 19.6676 15.9121 19.1574 15.9121H10.3011L11.1876 16.7874C11.5485 17.1436 11.5485 17.7212 11.1876 18.0774C10.8268 18.4336 10.2418 18.4336 9.88105 18.0774L7.41731 15.645Z" fill="white"/>
</svg>
