<svg width="26" height="26" viewBox="0 0 26 26" fill="none" xmlns="http://www.w3.org/2000/svg">
<path d="M20.0413 21.6667H5.95801L2.70801 24.9167V6.5C2.70801 4.7125 4.17051 3.25 5.95801 3.25H20.0413C21.8288 3.25 23.2913 4.7125 23.2913 6.5V18.4167C23.2913 20.2042 21.8288 21.6667 20.0413 21.6667Z" fill="#334391"/>
<path d="M11.917 10.8335H14.0837V16.7918H11.917V10.8335Z" fill="white"/>
<path d="M11.917 8.12484C11.917 8.41215 12.0311 8.68771 12.2343 8.89087C12.4375 9.09403 12.713 9.20817 13.0003 9.20817C13.2876 9.20817 13.5632 9.09403 13.7664 8.89087C13.9695 8.68771 14.0837 8.41215 14.0837 8.12484C14.0837 7.83752 13.9695 7.56197 13.7664 7.3588C13.5632 7.15564 13.2876 7.0415 13.0003 7.0415C12.713 7.0415 12.4375 7.15564 12.2343 7.3588C12.0311 7.56197 11.917 7.83752 11.917 8.12484Z" fill="white"/>
</svg>
