<svg width="36" height="36" viewBox="0 0 36 36" fill="none" xmlns="http://www.w3.org/2000/svg">
<path d="M26.2796 7.2002H14.7596C13.5716 7.2002 12.5996 8.1722 12.5996 9.3602V9.7202C12.5996 9.9362 12.7436 10.0802 12.9596 10.0802H23.3996C24.5876 10.0802 25.5596 11.0522 25.5596 12.2402V23.4002C25.5596 23.6162 25.7036 23.7602 25.9196 23.7602H26.2796C27.4676 23.7602 28.4396 22.7882 28.4396 21.6002V9.3602C28.4396 8.1722 27.4676 7.2002 26.2796 7.2002Z" fill="#F7FAFB"/>
<path d="M21.2396 12.2402H9.71957C8.53157 12.2402 7.55957 13.2122 7.55957 14.4002V26.6402C7.55957 27.8282 8.53157 28.8002 9.71957 28.8002H21.2396C22.4276 28.8002 23.3996 27.8282 23.3996 26.6402V14.4002C23.3996 13.2122 22.4276 12.2402 21.2396 12.2402ZM10.4396 15.8402C10.4396 15.4442 10.7636 15.1202 11.1596 15.1202H18.3596C18.7556 15.1202 19.0796 15.4442 19.0796 15.8402V16.5602C19.0796 16.9562 18.7556 17.2802 18.3596 17.2802H11.1596C10.7636 17.2802 10.4396 16.9562 10.4396 16.5602V15.8402ZM19.0796 25.2002C19.0796 25.5962 18.7556 25.9202 18.3596 25.9202H11.1596C10.7636 25.9202 10.4396 25.5962 10.4396 25.2002V24.4802C10.4396 24.0842 10.7636 23.7602 11.1596 23.7602H18.3596C18.7556 23.7602 19.0796 24.0842 19.0796 24.4802V25.2002ZM20.5196 20.8802C20.5196 21.2762 20.1956 21.6002 19.7996 21.6002H11.1596C10.7636 21.6002 10.4396 21.2762 10.4396 20.8802V20.1602C10.4396 19.7642 10.7636 19.4402 11.1596 19.4402H19.7996C20.1956 19.4402 20.5196 19.7642 20.5196 20.1602V20.8802Z" fill="#F7FAFB"/>
</svg>
