<svg width="31" height="30" viewBox="0 0 31 30" fill="none" xmlns="http://www.w3.org/2000/svg">
<path fill-rule="evenodd" clip-rule="evenodd" d="M23.8996 19.6669C23.8996 21.7287 22.2282 23.4001 20.1664 23.4001H10.8328C8.77102 23.4001 7.09961 21.7287 7.09961 19.6669V10.3333C7.09961 8.27151 8.77102 6.6001 10.8328 6.6001H20.1664C22.2282 6.6001 23.8996 8.27151 23.8996 10.3333V19.6669Z" stroke="#2D5497" stroke-width="1.5" stroke-linecap="round" stroke-linejoin="round"/>
<path fill-rule="evenodd" clip-rule="evenodd" d="M15.2027 13.0717C15.6692 12.3359 15.5794 11.3778 14.9843 10.7414C14.4035 10.1202 13.4536 10.0224 12.7583 10.5122C12.4656 10.7187 12.2398 11.0066 12.1091 11.3402C11.9754 11.6791 11.9405 12.049 12.0083 12.407C12.074 12.7618 12.2407 13.0901 12.4883 13.3525C12.731 13.6085 13.0457 13.7848 13.3907 13.8577C13.7331 13.9288 14.089 13.8919 14.4095 13.7521C14.7359 13.6097 15.0122 13.3727 15.2027 13.0717Z" stroke="#2D5497" stroke-width="1.5" stroke-linecap="round" stroke-linejoin="round"/>
<path fill-rule="evenodd" clip-rule="evenodd" d="M15.7972 18.979C15.3308 18.2432 15.4206 17.285 16.0156 16.6486C16.5964 16.0275 17.5464 15.9296 18.2416 16.4194C18.5344 16.6259 18.7602 16.9138 18.8908 17.2474C19.0245 17.5863 19.0594 17.9563 18.9916 18.3142C18.926 18.6691 18.7593 18.9974 18.5116 19.2598C18.269 19.5158 17.9542 19.6919 17.6092 19.765C17.2669 19.8361 16.911 19.7992 16.5904 19.6594C16.264 19.517 15.9878 19.28 15.7972 18.979Z" stroke="#2D5497" stroke-width="1.5" stroke-linecap="round" stroke-linejoin="round"/>
<path d="M15.4998 11.1455C15.0028 11.1455 14.5998 11.5485 14.5998 12.0455C14.5998 12.5426 15.0028 12.9455 15.4998 12.9455V11.1455ZM20.2998 12.9455C20.7968 12.9455 21.1998 12.5426 21.1998 12.0455C21.1998 11.5485 20.7968 11.1455 20.2998 11.1455V12.9455ZM11.973 12.9455C12.4701 12.9455 12.873 12.5426 12.873 12.0455C12.873 11.5485 12.4701 11.1455 11.973 11.1455V12.9455ZM10.6998 11.1455C10.2028 11.1455 9.7998 11.5485 9.7998 12.0455C9.7998 12.5426 10.2028 12.9455 10.6998 12.9455V11.1455ZM15.4998 18.8543C15.9968 18.8543 16.3998 18.4513 16.3998 17.9543C16.3998 17.4572 15.9968 17.0543 15.4998 17.0543V18.8543ZM10.6998 17.0543C10.2028 17.0543 9.7998 17.4572 9.7998 17.9543C9.7998 18.4513 10.2028 18.8543 10.6998 18.8543V17.0543ZM19.0266 17.0543C18.5296 17.0543 18.1266 17.4572 18.1266 17.9543C18.1266 18.4513 18.5296 18.8543 19.0266 18.8543V17.0543ZM20.2998 18.8543C20.7968 18.8543 21.1998 18.4513 21.1998 17.9543C21.1998 17.4572 20.7968 17.0543 20.2998 17.0543V18.8543ZM15.4998 12.9455H20.2998V11.1455H15.4998V12.9455ZM11.973 11.1455H10.6998V12.9455H11.973V11.1455ZM15.4998 17.0543H10.6998V18.8543H15.4998V17.0543ZM19.0266 18.8543H20.2998V17.0543H19.0266V18.8543Z" fill="#2D5497"/>
</svg>
