<svg width="30" height="30" viewBox="0 0 30 30" fill="none" xmlns="http://www.w3.org/2000/svg">
<g clip-path="url(#clip0_103_951)">
<path d="M30 16.5448C30 14.5174 28.3752 12.8702 26.3607 12.8146C26.214 12.5853 26.0067 12.4021 25.7623 12.2798C26.0859 7.45024 21.8814 2.39632 16.6447 1.75646C15.9692 1.63912 15.6643 1.65775 15.0015 1.6123C7.27196 1.83615 3.94338 8.33441 4.23565 12.2832C3.99324 12.4055 3.78891 12.5872 3.64325 12.814C1.62664 12.8677 0 14.5159 0 16.5448C0 18.5732 1.62664 20.2214 3.64331 20.2752C3.91015 20.6926 4.37552 20.9712 4.90725 20.9712C5.73621 20.9712 6.40875 20.2991 6.40875 19.4697V13.6196C6.40875 13.1132 6.15658 12.6674 5.7724 12.3956C6.42046 8.75282 9.7314 4.70136 15.0014 4.61537C15.3201 4.63828 16.0063 4.63287 16.2958 4.70967C18.9175 4.95164 23.3164 7.52112 24.2266 12.3995C23.8454 12.6718 23.5952 13.1156 23.5952 13.6196V19.4697C23.5952 20.1002 23.9842 20.6374 24.5345 20.8603V21.4971C24.5345 23.1599 23.4113 24.619 21.8042 25.0451L17.2693 26.246C17.0249 25.922 16.6545 25.6992 16.2156 25.6992C15.4736 25.6992 14.8714 26.3013 14.8714 27.0433C14.8714 27.7863 15.4737 28.3874 16.2156 28.3874C16.8989 28.3874 17.4385 27.8723 17.5255 27.2138L22.0604 26.0129C24.1064 25.4703 25.5355 23.813 25.5355 20.8984C25.8797 20.7928 26.171 20.5719 26.3607 20.2747C28.3752 20.2189 30 18.5717 30 16.5448Z" fill="white"/>
<path d="M11.6107 18.4695H10.1503V18.4533C10.9939 17.7524 12.0154 16.9088 12.0154 15.8125C12.0154 13.4341 8.22551 14.0636 8.62328 15.0647C8.73181 15.3564 9.02017 15.4381 9.24213 15.3301C9.94796 14.9855 10.7994 15.1311 10.7994 15.9166C10.7759 16.7832 9.50607 17.753 8.50507 18.6587C8.3545 18.795 8.3154 19.47 8.67515 19.47H11.6107C12.2725 19.47 12.2725 18.4695 11.6107 18.4695Z" fill="white"/>
<path d="M15.595 19.4695C16.2461 19.4695 16.1708 18.8716 16.1708 18.229C17.0466 18.229 17.0251 17.3164 16.1708 17.3164V14.5202C16.1708 14.3803 16.0573 14.2669 15.9175 14.2669C14.3027 14.2669 14.9821 13.7845 12.8226 17.2597C12.6468 17.5456 12.6115 18.229 12.9663 18.229H15.0182C15.0182 18.8702 14.943 19.4695 15.595 19.4695ZM13.8501 17.3164V17.3003L14.5461 16.1639C14.7221 15.8359 14.8589 15.5319 15.0261 15.1957H15.0583C15.0045 15.962 15.0183 16.1565 15.0183 17.3164H13.8501Z" fill="white"/>
<path d="M17.502 14.6876V18.8573C17.502 19.6657 18.7269 19.6691 18.7269 18.8573V17.2125H20.7358V18.8612C20.7358 19.6638 21.9528 19.6667 21.9528 18.8612V14.6837C21.9528 14.3474 21.6801 14.0752 21.3448 14.0752C20.509 14.0752 20.7358 15.2907 20.7358 16.1481H18.7269V14.6876C18.7269 13.8756 17.502 13.8791 17.502 14.6876Z" fill="white"/>
</g>
<defs>
<clipPath id="clip0_103_951">
<rect width="30" height="30" rx="3" fill="white"/>
</clipPath>
</defs>
</svg>
