<svg width="26" height="26" viewBox="0 0 26 26" fill="none" xmlns="http://www.w3.org/2000/svg">
<path d="M6.73172 1.85693C5.065 1.85693 3.71387 3.20808 3.71387 4.87479V21.1245C3.71387 22.7912 5.065 24.1424 6.73172 24.1424H15.616L13.6134 22.1396C12.7974 21.3238 12.7974 20.0008 13.6134 19.185C14.4292 18.3691 15.7521 18.3691 16.568 19.185L17.8746 20.4915L21.9686 16.3974C22.0674 16.2987 22.1735 16.2119 22.2853 16.1372V4.87479C22.2853 3.20807 20.9341 1.85693 19.2674 1.85693H6.73172ZM9.74958 8.12479C9.74958 8.76584 9.22991 9.28551 8.58887 9.28551C7.94782 9.28551 7.42815 8.76584 7.42815 8.12479C7.42815 7.48374 7.94782 6.96408 8.58887 6.96408C9.22991 6.96408 9.74958 7.48374 9.74958 8.12479ZM8.58887 14.1603C7.94782 14.1603 7.42815 13.6407 7.42815 12.9996C7.42815 12.3586 7.94782 11.8389 8.58887 11.8389C9.22991 11.8389 9.74958 12.3586 9.74958 12.9996C9.74958 13.6407 9.22991 14.1603 8.58887 14.1603ZM8.58887 19.0355C7.94782 19.0355 7.42815 18.5159 7.42815 17.8748C7.42815 17.2337 7.94782 16.7141 8.58887 16.7141C9.22991 16.7141 9.74958 17.2337 9.74958 17.8748C9.74958 18.5159 9.22991 19.0355 8.58887 19.0355ZM11.8389 7.42836H17.8746C18.2592 7.42836 18.571 7.74017 18.571 8.12479C18.571 8.50942 18.2592 8.82122 17.8746 8.82122H11.8389C11.4543 8.82122 11.1424 8.50942 11.1424 8.12479C11.1424 7.74017 11.4543 7.42836 11.8389 7.42836ZM11.1424 12.9996C11.1424 12.615 11.4543 12.3032 11.8389 12.3032H17.8746C18.2592 12.3032 18.571 12.615 18.571 12.9996C18.571 13.3842 18.2592 13.696 17.8746 13.696H11.8389C11.4543 13.696 11.1424 13.3842 11.1424 12.9996ZM11.8389 17.1784H17.8746C18.2592 17.1784 18.571 17.4902 18.571 17.8748C18.571 18.2594 18.2592 18.5712 17.8746 18.5712H11.8389C11.4543 18.5712 11.1424 18.2594 11.1424 17.8748C11.1424 17.4902 11.4543 17.1784 11.8389 17.1784Z" fill="white"/>
<path d="M18.3673 23.939L23.9387 18.3675C24.2107 18.0956 24.2107 17.6547 23.9387 17.3827C23.6668 17.1107 23.2259 17.1107 22.9539 17.3827L17.8749 22.4616L15.5835 20.1702C15.3115 19.8982 14.8705 19.8982 14.5985 20.1702C14.3265 20.4422 14.3265 20.8831 14.5985 21.1551L17.3825 23.939C17.513 24.0696 17.6902 24.143 17.8749 24.143C18.0596 24.143 18.2368 24.0696 18.3673 23.939Z" fill="white"/>
</svg>
